<svg viewBox="0 0 76 74" xmlns="http://www.w3.org/2000/svg" fill-rule="evenodd" clip-rule="evenodd" stroke-linejoin="round" stroke-miterlimit="2"><path d="M23.577.314c-6.98 0-11.855 2.438-15.844 8.088v-.221c0-2.327 1.219-5.208 2.105-6.426h-9.86v71.683l7.755-.554v-22.49c3.878 3.434 9.085 5.317 14.957 5.317 14.514 0 24.264-11.522 24.264-29.139C46.954 9.953 38.312.314 23.577.314zm-.887 47.863c-7.866 0-12.52-2.437-14.957-8.088V17.6c3.435-6.649 9.196-10.415 15.844-10.415 9.417 0 15.51 7.644 15.51 19.388 0 12.63-6.869 21.605-16.397 21.605z" fill="#ff2177" fill-rule="nonzero"/><path d="M67.685 49.23l-3.102-5.318c-2.992 2.437-8.753 4.21-13.517 4.21-8.753 0-12.852-3.435-12.852-10.969 0-12.298 8.53-29.803 20.053-29.803 4.765 0 7.534 3.324 7.534 7.866 0 1.108-.221 2.327-.443 3.546L75.551 17.1c.111-.665.111-1.33.111-1.995 0-8.641-6.98-15.067-16.619-15.067-16.84 0-29.36 18.502-29.36 36.118 0 12.188 7.534 19.278 21.161 19.278 3.546 0 9.418-2.105 16.841-6.204z" fill="#17bebb" fill-rule="nonzero"/><g><path d="M46.742 30.854c-1.45 15.123-10.711 24.82-24.083 24.82-5.815 0-10.987-1.848-14.863-5.264v22.437l-7.848.553V30.854h7.848v9.216c2.4 5.632 7.016 8.124 14.863 8.124 8.484 0 14.806-6.989 16.164-17.34h7.92z" fill="#ff2177" fill-rule="nonzero"/></g></svg>